<?xml version="1.0" encoding="utf-8"?>
<!-- Generator: Adobe Illustrator 22.1.0, SVG Export Plug-In . SVG Version: 6.00 Build 0)  -->
<svg version="1.1" id="レイヤー_1" xmlns="http://www.w3.org/2000/svg" xmlns:xlink="http://www.w3.org/1999/xlink" x="0px"
	 y="0px" viewBox="0 0 14.2 13.7" style="enable-background:new 0 0 14.2 13.7;" xml:space="preserve">
<style type="text/css">
	.st0{fill:#5EB7C7;}
</style>
<path class="st0" d="M6.4,9.5c-0.2,0-0.3-0.1-0.4-0.2L2.9,6.2C2.6,6,2.6,5.6,2.9,5.4c0.2-0.2,0.6-0.2,0.8,0l2.7,2.7l6.8-6.8
	C13.4,1,13.8,1,14,1.2c0.2,0.2,0.2,0.6,0,0.8L6.8,9.3C6.7,9.4,6.5,9.5,6.4,9.5z"/>
<path class="st0" d="M13.5,5.4c0.1,0.5,0.2,1,0.2,1.5c0,3.8-3.1,6.8-6.8,6.8C3.1,13.7,0,10.6,0,6.8C0,3.1,3.1,0,6.8,0
	c1.3,0,2.6,0.4,3.7,1.1L9.8,1.8C8.9,1.3,7.9,1,6.8,1C3.6,1,1,3.6,1,6.8s2.6,5.8,5.8,5.8s5.8-2.6,5.8-5.8c0-0.2,0-0.4,0-0.6L13.5,5.4
	z"/>
</svg>
